
<?xml version="1.0" encoding="utf-8"?>
<!-- Generator: Adobe Illustrator 24.0.3, SVG Export Plug-In . SVG Version: 6.00 Build 0)  -->
<svg version="1.1" id="Layer_1" xmlns="http://www.w3.org/2000/svg" xmlns:xlink="http://www.w3.org/1999/xlink" x="0px" y="0px"
	 viewBox="0 0 288 560" style="enable-background:new 0 0 288 560;" xml:space="preserve">
<style type="text/css">
	.st0{fill:#656F72;}
	.st1{fill:#8C989B;}
	.st2{fill:#879193;}
	.st3{fill:#360C0D;}
	.st4{fill:#FCE3C9;}
	.st5{fill:#F9CB9A;}
	.st6{fill:#0B0A13;}
	.st7{fill:#8C9699;}
	.st8{fill:#939393;}
	.st9{fill:#08086D;}
	.st10{fill:#150C8E;}
	.st11{fill:#1A1921;}
	.st12{fill:#FFFFFF;}
	.st13{fill:#936F51;}
	.st14{fill:#D6D1CC;}
	.st15{fill:#FF6200;}
	.st16{fill:#ED1B48;}
	.st17{fill:#2F819F;}
	.st18{fill:#D2DDC2;}
	.st19{fill:#E510B8;}
</style>
<g>
	<rect x="117.63" y="43.96" class="st0" width="18.33" height="15.62"/>
	<rect x="99.3" y="59.59" class="st0" width="18.33" height="15.62"/>
	<rect x="117.63" y="59.59" class="st1" width="18.33" height="15.62"/>
	<rect x="80.96" y="75.21" class="st0" width="18.33" height="15.63"/>
	<rect x="99.3" y="75.21" class="st1" width="18.33" height="15.63"/>
	<rect x="117.63" y="75.21" class="st1" width="18.33" height="15.63"/>
	<rect x="62.63" y="90.84" class="st0" width="18.33" height="15.62"/>
	<rect x="80.96" y="90.84" class="st0" width="18.33" height="15.62"/>
	<rect x="99.3" y="90.84" class="st1" width="18.33" height="15.62"/>
	<rect x="117.63" y="90.84" class="st2" width="18.33" height="15.62"/>
	<rect x="62.63" y="106.46" class="st0" width="18.33" height="15.63"/>
	<rect x="80.96" y="106.46" class="st0" width="18.33" height="15.63"/>
	<rect x="99.3" y="106.46" class="st0" width="18.33" height="15.63"/>
	<rect x="117.63" y="106.46" class="st3" width="18.33" height="15.63"/>
	<rect x="44.3" y="122.09" class="st0" width="18.34" height="15.63"/>
	<rect x="62.63" y="122.09" class="st0" width="18.33" height="15.63"/>
	<rect x="80.96" y="122.09" class="st0" width="18.33" height="15.63"/>
	<rect x="99.3" y="122.09" class="st3" width="18.33" height="15.63"/>
	<rect x="117.63" y="122.09" class="st4" width="18.33" height="15.63"/>
	<rect x="44.3" y="137.71" class="st0" width="18.34" height="15.62"/>
	<rect x="62.63" y="137.71" class="st1" width="18.33" height="15.62"/>
	<rect x="80.96" y="137.71" class="st3" width="18.33" height="15.62"/>
	<rect x="99.3" y="137.71" class="st4" width="18.33" height="15.62"/>
	<rect x="117.63" y="137.71" class="st5" width="18.33" height="15.62"/>
	<rect x="44.3" y="153.34" class="st0" width="18.34" height="15.63"/>
	<rect x="62.63" y="153.34" class="st1" width="18.33" height="15.63"/>
	<rect x="80.96" y="153.34" class="st5" width="18.33" height="15.63"/>
	<rect x="99.3" y="153.34" class="st4" width="18.33" height="15.63"/>
	<rect x="117.63" y="153.34" class="st4" width="18.33" height="15.63"/>
	<rect x="44.3" y="168.96" class="st0" width="18.34" height="15.63"/>
	<rect x="62.63" y="168.96" class="st1" width="18.33" height="15.63"/>
	<rect x="80.96" y="168.96" class="st5" width="18.33" height="15.63"/>
	<rect x="99.3" y="168.96" class="st4" width="18.33" height="15.63"/>
	<rect x="117.63" y="168.96" class="st4" width="18.33" height="15.63"/>
	<rect x="135.96" y="43.96" class="st1" width="18.33" height="15.62"/>
	<rect x="154.29" y="43.96" class="st1" width="18.33" height="15.62"/>
	<rect x="172.63" y="43.96" class="st1" width="18.33" height="15.62"/>
	<rect x="135.96" y="59.59" class="st1" width="18.33" height="15.62"/>
	<rect x="154.29" y="59.59" class="st1" width="18.33" height="15.62"/>
	<rect x="172.63" y="59.59" class="st1" width="18.33" height="15.62"/>
	<rect x="190.96" y="59.59" class="st1" width="18.33" height="15.62"/>
	<rect x="135.96" y="75.21" class="st1" width="18.33" height="15.63"/>
	<rect x="154.29" y="75.21" class="st1" width="18.33" height="15.63"/>
	<rect x="172.63" y="75.21" class="st0" width="18.33" height="15.63"/>
	<rect x="190.96" y="75.21" class="st0" width="18.33" height="15.63"/>
	<rect x="209.29" y="75.21" class="st0" width="18.33" height="15.63"/>
	<rect x="135.96" y="90.84" class="st0" width="18.33" height="15.62"/>
	<rect x="154.29" y="90.84" class="st0" width="18.33" height="15.62"/>
	<rect x="172.63" y="90.84" class="st0" width="18.33" height="15.62"/>
	<rect x="190.96" y="90.84" class="st3" width="18.33" height="15.62"/>
	<rect x="209.29" y="90.84" class="st3" width="18.33" height="15.62"/>
	<rect x="227.62" y="90.84" class="st1" width="18.33" height="15.62"/>
	<rect x="135.96" y="106.46" class="st3" width="18.33" height="15.63"/>
	<rect x="154.29" y="106.46" class="st4" width="18.33" height="15.63"/>
	<rect x="172.63" y="106.46" class="st3" width="18.33" height="15.63"/>
	<rect x="190.96" y="106.46" class="st5" width="18.33" height="15.63"/>
	<rect x="209.29" y="106.46" class="st0" width="18.33" height="15.63"/>
	<rect x="227.62" y="106.46" class="st1" width="18.33" height="15.63"/>
	<rect x="135.96" y="122.09" class="st5" width="18.33" height="15.63"/>
	<rect x="154.29" y="122.09" class="st4" width="18.33" height="15.63"/>
	<rect x="172.63" y="122.09" class="st5" width="18.33" height="15.63"/>
	<rect x="190.96" y="122.09" class="st4" width="18.33" height="15.63"/>
	<rect x="209.29" y="122.09" class="st1" width="18.33" height="15.63"/>
	<rect x="135.96" y="137.71" class="st6" width="18.33" height="15.62"/>
	<rect x="154.29" y="137.71" class="st4" width="18.33" height="15.62"/>
	<rect x="172.63" y="137.71" class="st4" width="18.33" height="15.62"/>
	<rect x="190.96" y="137.71" class="st6" width="18.33" height="15.62"/>
	<rect x="209.29" y="137.71" class="st0" width="18.33" height="15.62"/>
	<rect x="135.96" y="153.34" class="st6" width="18.33" height="15.63"/>
	<rect x="154.29" y="153.34" class="st4" width="18.33" height="15.63"/>
	<rect x="172.63" y="153.34" class="st4" width="18.33" height="15.63"/>
	<rect x="190.96" y="153.34" class="st6" width="18.33" height="15.63"/>
	<rect x="209.29" y="153.34" class="st0" width="18.33" height="15.63"/>
	<rect x="135.96" y="168.96" class="st4" width="18.33" height="15.63"/>
	<rect x="154.29" y="168.96" class="st4" width="18.33" height="15.63"/>
	<rect x="172.63" y="168.96" class="st4" width="18.33" height="15.63"/>
	<rect x="190.96" y="168.96" class="st4" width="18.33" height="15.63"/>
	<rect x="209.29" y="168.96" class="st0" width="18.33" height="15.63"/>
	<rect x="62.63" y="184.59" class="st0" width="18.33" height="15.63"/>
	<rect x="80.96" y="184.59" class="st7" width="18.33" height="15.63"/>
	<rect x="99.3" y="184.59" class="st4" width="18.33" height="15.63"/>
	<rect x="117.63" y="184.59" class="st4" width="18.33" height="15.63"/>
	<rect x="62.63" y="200.21" class="st0" width="18.33" height="15.63"/>
	<rect x="80.96" y="200.21" class="st0" width="18.33" height="15.63"/>
	<rect x="99.3" y="200.21" class="st2" width="18.33" height="15.63"/>
	<rect x="117.63" y="200.21" class="st4" width="18.33" height="15.63"/>
	<rect x="44.3" y="215.84" class="st0" width="18.34" height="15.62"/>
	<rect x="62.63" y="215.84" class="st0" width="18.33" height="15.62"/>
	<rect x="80.96" y="215.84" class="st0" width="18.33" height="15.62"/>
	<rect x="99.3" y="215.84" class="st0" width="18.33" height="15.62"/>
	<rect x="117.63" y="215.84" class="st8" width="18.33" height="15.62"/>
	<rect x="25.96" y="231.46" class="st0" width="18.33" height="15.62"/>
	<rect x="44.3" y="231.46" class="st1" width="18.34" height="15.62"/>
	<rect x="62.63" y="231.46" class="st0" width="18.33" height="15.62"/>
	<rect x="80.96" y="231.46" class="st1" width="18.33" height="15.62"/>
	<rect x="99.3" y="231.46" class="st1" width="18.33" height="15.62"/>
	<rect x="117.63" y="231.46" class="st1" width="18.33" height="15.62"/>
	<rect x="25.96" y="247.09" class="st0" width="18.33" height="15.63"/>
	<rect x="62.63" y="247.09" class="st0" width="18.33" height="15.63"/>
	<rect x="80.96" y="247.09" class="st0" width="18.33" height="15.63"/>
	<rect x="99.3" y="247.09" class="st1" width="18.33" height="15.63"/>
	<rect x="117.63" y="247.09" class="st1" width="18.33" height="15.63"/>
	<rect x="25.96" y="262.72" class="st1" width="18.33" height="15.62"/>
	<rect x="62.63" y="262.72" class="st0" width="18.33" height="15.62"/>
	<rect x="80.96" y="262.72" class="st1" width="18.33" height="15.62"/>
	<rect x="99.3" y="262.72" class="st1" width="18.33" height="15.62"/>
	<rect x="117.63" y="262.72" class="st1" width="18.33" height="15.62"/>
	<rect x="44.3" y="278.34" class="st5" width="18.34" height="15.63"/>
	<rect x="62.63" y="278.34" class="st9" width="18.33" height="15.63"/>
	<rect x="80.96" y="278.34" class="st10" width="18.33" height="15.63"/>
	<rect x="99.3" y="278.34" class="st10" width="18.33" height="15.63"/>
	<rect x="117.63" y="278.34" class="st10" width="18.33" height="15.63"/>
	<rect x="62.63" y="293.97" class="st4" width="18.33" height="15.62"/>
	<rect x="80.96" y="293.97" class="st10" width="18.33" height="15.62"/>
	<rect x="99.3" y="293.97" class="st10" width="18.33" height="15.62"/>
	<rect x="117.63" y="293.97" class="st10" width="18.33" height="15.62"/>
	<rect x="62.63" y="309.59" class="st9" width="18.33" height="15.62"/>
	<rect x="80.96" y="309.59" class="st10" width="18.33" height="15.62"/>
	<rect x="99.3" y="309.59" class="st10" width="18.33" height="15.62"/>
	<rect x="117.63" y="309.59" class="st10" width="18.33" height="15.62"/>
	<rect x="62.63" y="325.22" class="st9" width="18.33" height="15.63"/>
	<rect x="80.96" y="325.22" class="st10" width="18.33" height="15.63"/>
	<rect x="99.3" y="325.22" class="st10" width="18.33" height="15.63"/>
	<rect x="117.63" y="325.22" class="st10" width="18.33" height="15.63"/>
	<rect x="62.63" y="340.84" class="st9" width="18.33" height="15.63"/>
	<rect x="80.96" y="340.84" class="st10" width="18.33" height="15.63"/>
	<rect x="99.3" y="340.84" class="st9" width="18.33" height="15.63"/>
	<rect x="62.63" y="356.47" class="st9" width="18.33" height="15.63"/>
	<rect x="80.96" y="356.47" class="st9" width="18.33" height="15.63"/>
	<rect x="62.63" y="372.09" class="st9" width="18.33" height="15.63"/>
	<rect x="62.63" y="387.72" class="st0" width="18.33" height="15.62"/>
	<rect x="135.96" y="184.59" class="st4" width="18.33" height="15.63"/>
	<rect x="154.29" y="184.59" class="st4" width="18.33" height="15.63"/>
	<rect x="172.63" y="184.59" class="st4" width="18.33" height="15.63"/>
	<rect x="190.96" y="184.59" class="st4" width="18.33" height="15.63"/>
	<rect x="209.29" y="184.59" class="st0" width="18.33" height="15.63"/>
	<rect x="135.96" y="200.21" class="st4" width="18.33" height="15.63"/>
	<rect x="154.29" y="200.21" class="st4" width="18.33" height="15.63"/>
	<rect x="172.63" y="200.21" class="st4" width="18.33" height="15.63"/>
	<rect x="190.96" y="200.21" class="st0" width="18.33" height="15.63"/>
	<rect x="135.96" y="215.84" class="st11" width="18.33" height="15.62"/>
	<rect x="154.29" y="215.84" class="st11" width="18.33" height="15.62"/>
	<rect x="172.63" y="215.84" class="st11" width="18.33" height="15.62"/>
	<rect x="190.96" y="215.84" class="st1" width="18.33" height="15.62"/>
	<rect x="135.96" y="231.46" class="st0" width="18.33" height="15.62"/>
	<rect x="154.29" y="231.46" class="st11" width="18.33" height="15.62"/>
	<rect x="172.63" y="231.46" class="st0" width="18.33" height="15.62"/>
	<rect x="190.96" y="231.46" class="st1" width="18.33" height="15.62"/>
	<rect x="135.96" y="247.09" class="st1" width="18.33" height="15.63"/>
	<rect x="154.29" y="247.09" class="st1" width="18.33" height="15.63"/>
	<rect x="172.63" y="247.09" class="st1" width="18.33" height="15.63"/>
	<rect x="190.96" y="247.09" class="st1" width="18.33" height="15.63"/>
	<rect x="209.29" y="247.09" class="st0" width="18.33" height="15.63"/>
	<rect x="135.96" y="262.72" class="st0" width="18.33" height="15.62"/>
	<rect x="154.29" y="262.72" class="st0" width="18.33" height="15.62"/>
	<rect x="172.63" y="262.72" class="st0" width="18.33" height="15.62"/>
	<rect x="190.96" y="262.72" class="st1" width="18.33" height="15.62"/>
	<rect x="209.29" y="262.72" class="st0" width="18.33" height="15.62"/>
	<rect x="227.62" y="262.72" class="st0" width="18.33" height="15.62"/>
	<rect x="135.96" y="278.34" class="st0" width="18.33" height="15.63"/>
	<rect x="154.29" y="278.34" class="st0" width="18.33" height="15.63"/>
	<rect x="172.63" y="278.34" class="st0" width="18.33" height="15.63"/>
	<rect x="190.96" y="278.34" class="st9" width="18.33" height="15.63"/>
	<rect x="227.62" y="278.34" class="st5" width="18.33" height="15.63"/>
	<rect x="135.96" y="293.97" class="st10" width="18.33" height="15.62"/>
	<rect x="154.29" y="293.97" class="st10" width="18.33" height="15.62"/>
	<rect x="172.63" y="293.97" class="st10" width="18.33" height="15.62"/>
	<rect x="190.96" y="293.97" class="st9" width="18.33" height="15.62"/>
	<rect x="209.29" y="293.97" class="st4" width="18.33" height="15.62"/>
	<rect x="135.96" y="309.59" class="st10" width="18.33" height="15.62"/>
	<rect x="154.29" y="309.59" class="st10" width="18.33" height="15.62"/>
	<rect x="172.63" y="309.59" class="st10" width="18.33" height="15.62"/>
	<rect x="190.96" y="309.59" class="st9" width="18.33" height="15.62"/>
	<rect x="135.96" y="325.22" class="st10" width="18.33" height="15.63"/>
	<rect x="154.29" y="325.22" class="st10" width="18.33" height="15.63"/>
	<rect x="172.63" y="325.22" class="st10" width="18.33" height="15.63"/>
	<rect x="190.96" y="325.22" class="st9" width="18.33" height="15.63"/>
	<rect x="154.29" y="340.84" class="st9" width="18.33" height="15.63"/>
	<rect x="172.63" y="340.84" class="st10" width="18.33" height="15.63"/>
	<rect x="190.96" y="340.84" class="st9" width="18.33" height="15.63"/>
	<rect x="154.29" y="356.47" class="st9" width="18.33" height="15.63"/>
	<rect x="172.63" y="356.47" class="st9" width="18.33" height="15.63"/>
	<rect x="154.29" y="372.09" class="st9" width="18.33" height="15.63"/>
	<rect x="154.29" y="387.72" class="st0" width="18.33" height="15.62"/>
</g>
<path class="st12" d="M163.46,405.15"/>
<path class="st12" d="M181.79,405.15"/>
<path class="st12" d="M234.83,400.12"/>
<path class="st12" d="M253.16,400.12"/>
<line class="st12" x1="179.83" y1="402.97" x2="198.17" y2="402.97"/>
<line class="st12" x1="198.17" y1="402.97" x2="216.5" y2="402.97"/>
<line class="st12" x1="216.5" y1="402.97" x2="234.83" y2="402.97"/>
<polyline class="st13" points="-23.91,317.34 -23.91,332.96 -42.25,332.96 -42.25,317.34 "/>
<polyline class="st13" points="-26.55,334.23 -26.55,349.85 -44.88,349.85 -44.88,334.23 "/>
<polyline class="st13" points="-8.22,334.23 -8.22,349.85 -26.55,349.85 -26.55,334.23 "/>
<polyline class="st13" points="10.12,334.23 10.12,349.85 -8.22,349.85 -8.22,334.23 "/>
<rect x="-44.88" y="349.85" class="st13" width="18.34" height="15.63"/>
<rect x="-26.55" y="349.85" class="st14" width="18.33" height="15.63"/>
<rect x="-8.22" y="349.85" class="st13" width="18.33" height="15.63"/>
<rect x="-63.22" y="365.48" class="st13" width="18.33" height="15.63"/>
<rect x="-44.88" y="365.48" class="st14" width="18.34" height="15.63"/>
<rect x="-26.55" y="365.48" class="st14" width="18.33" height="15.63"/>
<rect x="-8.22" y="365.48" class="st14" width="18.33" height="15.63"/>
<rect x="-63.22" y="381.11" class="st14" width="18.33" height="15.63"/>
<rect x="-44.88" y="381.11" class="st14" width="18.34" height="15.63"/>
<rect x="-26.55" y="381.11" class="st14" width="18.33" height="15.63"/>
<rect x="-8.22" y="381.11" class="st14" width="18.33" height="15.63"/>
<polyline class="st14" points="-63.22,412.36 -63.22,396.73 -44.88,396.73 -44.88,412.36 "/>
<polyline class="st13" points="-44.88,412.36 -44.88,396.73 -26.55,396.73 -26.55,412.36 "/>
<polyline class="st14" points="-26.55,412.36 -26.55,396.73 -8.22,396.73 -8.22,412.36 "/>
<polyline class="st13" points="-8.22,412.36 -8.22,396.73 10.12,396.73 10.12,412.36 "/>
<rect x="-33.08" y="344.22" class="st11" width="6.53" height="5.57"/>
<rect x="-8.22" y="344.22" class="st11" width="6.53" height="5.57"/>
<rect x="-19.79" y="347.49" class="st15" width="4.75" height="2.36"/>
<rect x="-44.88" y="362.57" class="st16" width="55" height="2.91"/>
<polyline class="st13" points="10.12,317.34 10.12,332.96 -8.22,332.96 -8.22,317.34 "/>
<path class="st12" d="M245.95,396.76"/>
<path class="st12" d="M245.95,383.63"/>
<path class="st11" d="M242.8,319.67"/>
<path class="st17" d="M242.8,332.8"/>
<line class="st17" x1="255.94" y1="332.8" x2="255.94" y2="345.93"/>
<polyline class="st12" points="261.1,340.93 261.1,354.06 247.96,354.06 247.96,340.93 "/>
<polyline class="st12" points="313.64,340.93 313.64,354.06 300.5,354.06 300.5,340.93 "/>
<rect x="261.1" y="345.62" class="st12" width="13.14" height="13.13"/>
<rect x="274.23" y="345.62" class="st12" width="13.13" height="13.13"/>
<rect x="287.37" y="345.62" class="st12" width="13.13" height="13.13"/>
<rect x="261.1" y="358.75" class="st12" width="13.14" height="13.13"/>
<rect x="274.23" y="358.75" class="st18" width="13.13" height="13.13"/>
<rect x="287.37" y="358.75" class="st12" width="13.13" height="13.13"/>
<rect x="247.96" y="371.89" class="st12" width="13.13" height="13.13"/>
<rect x="261.1" y="371.89" class="st18" width="13.14" height="13.13"/>
<rect x="274.23" y="371.89" class="st18" width="13.13" height="13.13"/>
<rect x="287.37" y="371.89" class="st18" width="13.13" height="13.13"/>
<polyline class="st12" points="234.83,385.02 247.96,385.02 247.96,398.16 234.83,398.16 "/>
<rect x="247.96" y="385.02" class="st18" width="13.13" height="13.13"/>
<rect x="261.1" y="385.02" class="st18" width="13.14" height="13.13"/>
<rect x="274.23" y="385.02" class="st18" width="13.13" height="13.13"/>
<rect x="287.37" y="385.02" class="st18" width="13.13" height="13.13"/>
<polyline class="st18" points="247.96,411.29 247.96,398.16 261.1,398.16 261.1,411.29 "/>
<polyline class="st12" points="261.1,411.29 261.1,398.16 274.23,398.16 274.23,411.29 "/>
<polyline class="st18" points="274.23,411.29 274.23,398.16 287.37,398.16 287.37,411.29 "/>
<polyline class="st12" points="287.37,411.29 287.37,398.16 300.5,398.16 300.5,411.29 "/>
<rect x="269.55" y="354.02" class="st11" width="4.68" height="4.68"/>
<rect x="287.37" y="354.02" class="st11" width="4.68" height="4.68"/>
<rect x="279.08" y="356.77" class="st15" width="3.41" height="1.99"/>
<rect x="261.1" y="369.45" class="st19" width="39.4" height="2.44"/>
</svg>
